# xmcd
#
# Track frame offsets: 
#        150
#        10290
#        21364
#        34154
#        46016
#        58427
#        68606
#        79350
#        89760
#        102178
#        113353
#        125353
#        137761
#        147617
#        158512
#        166972
#        174752
#        183806
#        194064
#        202418
#
# Disc length: 2856 seconds
#
# Revision: 0
# Processed by: cddbd v1.5.2PL0 Copyright (c) Steve Scherf et al.
# Submitted via: ExactAudioCopy v0.99pb4
#
DISCID=1a0b2614
DTITLE=Johnny Cash - Folsom Prison Blues - (FabFour Box CD1)
DYEAR=1955
DGENRE=Country
TTITLE0=Hey Porter
TTITLE1=Cry, Cry, Cry
TTITLE2=Folsom Prison BLues
TTITLE3=So Doggone Lonesome
TTITLE4=I Walk the Line
TTITLE5=Get Rhythm
TTITLE6=Train of Love
TTITLE7=There You Go
TTITLE8=Next in Line
TTITLE9=Don't Make Me Go
TTITLE10=Home of the Blues
TTITLE11=Give My Love to Rose
TTITLE12=Rock Island Line
TTITLE13=I Heard That Lonesome Whistle
TTITLE14=Country Boy
TTITLE15=If the Good Lord's Willing
TTITLE16=Remember Me
TTITLE17=I Was There When It Happened
TTITLE18=Wreck of the Old '97
TTITLE19=Doin' My Time
EXTD=
EXTT0=
EXTT1=
EXTT2=
EXTT3=
EXTT4=
EXTT5=
EXTT6=
EXTT7=
EXTT8=
EXTT9=
EXTT10=
EXTT11=
EXTT12=
EXTT13=
EXTT14=
EXTT15=
EXTT16=
EXTT17=
EXTT18=
EXTT19=
PLAYORDER=
